<svg width="24" height="24" viewBox="0 0 24 24" fill="none" xmlns="http://www.w3.org/2000/svg">
<path d="M15 2.25C18.7279 2.25 21.75 5.27208 21.75 9C21.75 12.7279 18.7279 15.75 15 15.75C14.6928 15.75 14.3897 15.7294 14.0928 15.6895C13.87 15.6595 13.7236 15.6403 13.6152 15.6299C13.4997 15.6187 13.486 15.6246 13.5107 15.6211C13.4826 15.6251 13.4693 15.6278 13.4648 15.6289C13.4601 15.631 13.4476 15.6371 13.4238 15.6504C13.4165 15.6559 13.3986 15.6696 13.3672 15.6982C13.3084 15.7518 13.2335 15.827 13.1094 15.9512L11.5303 17.5303C11.3896 17.6709 11.1989 17.75 11 17.75H9.75V19C9.75 19.4142 9.41421 19.75 9 19.75H7.75V21C7.75 21.4142 7.41421 21.75 7 21.75H4.59961C4.33214 21.75 4.08609 21.7501 3.88184 21.7334C3.66882 21.716 3.43524 21.6768 3.20508 21.5596C2.876 21.3918 2.60817 21.124 2.44043 20.7949C2.32316 20.5647 2.28403 20.3312 2.2666 20.1182C2.24991 19.9139 2.25 19.6679 2.25 19.4004V17.6631C2.25 17.4542 2.24568 17.2273 2.29883 17.0059C2.34168 16.8274 2.41192 16.6565 2.50781 16.5C2.62681 16.3058 2.79078 16.1487 2.93848 16.001L8.04883 10.8906C8.17297 10.7665 8.24821 10.6916 8.30176 10.6328C8.33038 10.6014 8.34412 10.5835 8.34961 10.5762C8.36295 10.5523 8.36901 10.5398 8.37109 10.5352C8.37219 10.5307 8.37488 10.5174 8.37891 10.4893C8.37535 10.5141 8.38129 10.5005 8.37012 10.3848C8.35966 10.2764 8.34051 10.1301 8.31055 9.90723C8.27062 9.61024 8.25 9.30719 8.25 9C8.25 5.27211 11.2721 2.25005 15 2.25ZM15 6.25C14.5858 6.25005 14.25 6.58581 14.25 7C14.25 7.41419 14.5858 7.74995 15 7.75C15.321 7.75 15.6396 7.87201 15.8838 8.11621C16.128 8.36043 16.25 8.67895 16.25 9C16.25 9.41416 16.5858 9.74995 17 9.75C17.4142 9.74999 17.75 9.41418 17.75 9C17.75 8.2974 17.4811 7.59247 16.9443 7.05566C16.4075 6.51887 15.7026 6.25 15 6.25Z" fill="currentColor" stroke="none"/>
</svg>
