<svg width="24" height="24" viewBox="0 0 24 24" fill="none" xmlns="http://www.w3.org/2000/svg">
<path d="M17 17L21 21" stroke="currentColor" fill="none" stroke-width="1.5" stroke-linecap="round" stroke-linejoin="round"/>
<path d="M3 11C3 15.4183 6.58172 19 11 19C13.213 19 15.2161 18.1015 16.6644 16.6493C18.1077 15.2022 19 13.2053 19 11C19 6.58172 15.4183 3 11 3C6.58172 3 3 6.58172 3 11Z" stroke="currentColor" fill="none" stroke-width="1.5" stroke-linecap="round" stroke-linejoin="round"/>
<path fill-rule="evenodd" clip-rule="evenodd" d="M5 11C5 7.68629 7.68629 5 11 5C14.3137 5 17 7.68629 17 11C17 12.6538 16.3302 14.1522 15.2483 15.237C14.1626 16.3255 12.6596 17 11 17C7.68629 17 5 14.3137 5 11Z" fill="currentColor" stroke="none"/>
</svg>
